<svg xmlns="http://www.w3.org/2000/svg" xmlns:se="http://svg-edit.googlecode.com" xmlns:xlink="http://www.w3.org/1999/xlink" xmlns:dc="http://purl.org/dc/elements/1.1/" xmlns:cc="http://creativecommons.org/ns#" xmlns:rdf="http://www.w3.org/1999/02/22-rdf-syntax-ns#" xmlns:inkscape="http://www.inkscape.org/namespaces/inkscape" width="800" height="800" style="">                                    <title>my vector image</title>                                    <!-- Created with Vector Paint - http://www.vectorpaint.yaks.com/ https://chrome.google.com/webstore/detail/hnbpdiengicdefcjecjbnjnoifekhgdo -->                                    <rect id="backgroundrect" width="100%" height="100%" x="0" y="0" fill="#FFFFFF" stroke="none"/>                                <g class="currentLayer" style=""><title>Layer 1</title><path fill="#ffffff" stroke="#6d6d6d" stroke-width="0" stroke-linejoin="round" stroke-dashoffset="" fill-rule="nonzero" marker-start="" marker-mid="" marker-end="" id="svg_11" d="M2.5,4.832999930559656 L2.5,267.4642769158955 L319.9999766546102,267.4642769158955 L319.9999766546102,4.832999930559656 L2.5,4.832999930559656 zM270.0231284774957,244.92177857341807 L52.476848177114576,244.92177857341807 L52.476848177114576,27.375498273036968 L270.0231284774957,27.375498273036968 L270.0231284774957,244.92177857341807 zM105.39351095288295,112.63012163399722 C122.16221342360421,112.63012163399722 135.76767538617398,99.02465967142726 135.76767538617398,82.25595720070618 C135.76767538617398,65.47549547159016 122.16221342360421,51.881792767415035 105.39351095288295,51.881792767415035 C88.61304922376704,51.881792767415035 75.01934651959183,65.48725472998485 75.01934651959183,82.25595720070618 C75.01934651959183,99.02465967142726 88.61304922376704,112.63012163399722 105.39351095288295,112.63012163399722 zM258.2756293412751,139.08845302188132 L200.45535581495218,81.26817949555829 L119.11656549939885,162.60696981111178 L96.57406715692156,140.06447146863437 L64.21258805494045,172.42595057061547 L64.21258805494045,233.1625201788031 L258.2756293412751,233.1625201788031 L258.2756293412751,139.08845302188132 z" style="color: rgb(0, 0, 0);"/><path fill="#ffffff" stroke="#6d6d6d" stroke-width="0" stroke-linejoin="round" stroke-dashoffset="" fill-rule="nonzero" marker-start="" marker-mid="" marker-end="" id="svg_13" d="M2.5,4.832999871857244 L2.5,251.95458314429473 L301.2500111200772,251.95458314429473 L301.2500111200772,4.832999871857244 L2.5,4.832999871857244 zM254.22454640673183,230.74333235476882 L49.525464713345485,230.74333235476882 L49.525464713345485,26.044250661382627 L254.22454640673183,26.044250661382627 L254.22454640673183,230.74333235476882 zM99.31713323335839,106.26416105473668 C115.0955597465892,106.26416105473668 127.89755096384573,93.46216983748003 127.89755096384573,77.68374332424942 C127.89755096384573,61.894251995791855 115.0955597465892,49.10332559376194 99.31713323335839,49.10332559376194 C83.52764190490112,49.10332559376194 70.73671550287098,61.905316811018636 70.73671550287098,77.68374332424942 C70.73671550287098,93.46216983748003 83.52764190490112,106.26416105473668 99.31713323335839,106.26416105473668 zM243.17079599528896,131.15999531474316 L188.76509952575486,76.75429884520896 L112.22977260288181,153.2896257680822 L91.01852181335623,132.07837497855658 L60.56815030956161,162.52874648235124 L60.56815030956161,219.6785171280994 L243.17079599528896,219.6785171280994 L243.17079599528896,131.15999531474316 z" style="color: rgb(0, 0, 0);"/><path fill="#ffffff" stroke="#6d6d6d" stroke-width="0" stroke-linejoin="round" stroke-dashoffset="" fill-rule="nonzero" marker-start="" marker-mid="" marker-end="" id="svg_17" d="M160.45622455174484,215.18669872517992 L160.45622455174484,489.1917922805247 L491.70622571556186,489.1917922805247 L491.70622571556186,215.18669872517992 L160.45622455174484,215.18669872517992 zM439.56502182864824,465.67304219790776 L212.5974284386037,465.67304219790776 L212.5974284386037,238.7054488078632 L439.56502182864824,238.7054488078632 L439.56502182864824,465.67304219790776 zM267.8057619659037,327.65220837964483 C285.3006694347798,327.65220837964483 299.4953454105873,313.45753240384636 299.4953454105873,295.9626249349665 C299.4953454105873,278.4554489475146 285.3006694347798,264.27304149028214 267.8057619659037,264.27304149028214 C250.29858597845396,264.27304149028214 236.11617852128225,278.46771746602553 236.11617852128225,295.9626249349665 C236.11617852128225,313.45753240384636 250.29858597845396,327.65220837964483 267.8057619659037,327.65220837964483 zM427.3087717856138,355.256375143298 L366.98446601812543,294.9320693757531 L282.1231231273719,379.7934122665098 L258.60437304468536,356.2746621838315 L224.8414099631177,390.03762526550804 L224.8414099631177,453.40452363624553 L427.3087717856138,453.40452363624553 L427.3087717856138,355.256375143298 z" style="color: rgb(0, 0, 0);" class=""/><path fill="#ffffff" stroke="#6d6d6d" stroke-width="0" stroke-linejoin="round" stroke-dashoffset="" fill-rule="nonzero" marker-start="" marker-mid="" marker-end="" id="svg_21" d="M180.4724726472157,196.53663520003033 L180.4724726472157,200.67256098863936 L185.47247248120985,200.67256098863936 L185.47247248120985,196.53663520003033 L180.4724726472157,196.53663520003033 zM184.68543547030347,200.3175610004247 L181.2595096581221,200.3175610004247 L181.2595096581221,196.89163518824347 L184.68543547030347,196.89163518824347 L184.68543547030347,200.3175610004247 zM182.09284296378812,198.23422773626055 C182.35691702909432,198.23422773626055 182.5711762812394,198.0199684841154 182.5711762812394,197.75589441880925 C182.5711762812394,197.4916351683239 182.35691702909432,197.27756110135653 182.09284296378812,197.27756110135653 C181.82858371330266,197.27756110135653 181.61450964633696,197.49182035350157 181.61450964633696,197.75589441880925 C181.61450964633696,198.0199684841154 181.82858371330266,198.23422773626055 182.09284296378812,198.23422773626055 zM184.50043547644626,198.65089438909433 L183.58987995112253,197.7403388637689 L182.3089540677244,199.02126474716704 L181.95395407951128,198.6662647589539 L181.4443244668015,199.17589437166356 L181.4443244668015,200.13237582138834 L184.50043547644626,200.13237582138834 L184.50043547644626,198.65089438909433 z" style="color: rgb(0, 0, 0);"/><path fill="#ffffff" stroke="#6d6d6d" stroke-width="0" stroke-linejoin="round" stroke-dashoffset="" fill-rule="nonzero" marker-start="" marker-mid="" marker-end="" id="svg_23" d="M197.7687301059011,263.6992340850288 L197.7687301059011,330.90803191168686 L279.01873195598563,330.90803191168686 L279.01873195598563,263.6992340850288 L197.7687301059011,263.6992340850288 zM266.22937981291545,325.1392817803359 L210.55808224897297,325.1392817803359 L210.55808224897297,269.4679842163799 L266.22937981291545,269.4679842163799 L266.22937981291545,325.1392817803359 zM224.0997492239838,291.28511434279216 C228.39095302539937,291.28511434279216 231.87266606762876,287.80340130056527 231.87266606762876,283.51219749916424 C231.87266606762876,279.2179844383865 228.39095302539937,275.73928065550325 224.0997492239838,275.73928065550325 C219.80553616323814,275.73928065550325 216.3268323803393,279.2209936977305 216.3268323803393,283.51219749916424 C216.3268323803393,287.80340130056527 219.80553616323814,291.28511434279216 224.0997492239838,291.28511434279216 zM263.2231297444695,298.05594783031336 L248.42660162976102,283.25941971559047 L227.6115548595169,304.07446648586216 L221.84280472814834,298.3057163545109 L213.56132305810144,306.5871980245741 L213.56132305810144,322.1300224525462 L263.2231297444695,322.1300224525462 L263.2231297444695,298.05594783031336 z" style="color: rgb(0, 0, 0);"/><path fill="#b6b6b6" stroke="#6d6d6d" stroke-width="0" stroke-linejoin="round" stroke-dashoffset="" fill-rule="nonzero" marker-start="" marker-mid="" marker-end="" id="svg_28" d="M51.24999842527521,104.18170303717565 L51.24999842527521,695.818276894366 L748.7500250807327,695.818276894366 L748.7500250807327,104.18170303717565 L51.24999842527521,104.18170303717565 zM638.9583542184308,645.0361817890722 L161.04166928757746,645.0361817890722 L161.04166928757746,154.963798142474 L638.9583542184308,154.963798142474 L638.9583542184308,645.0361817890722 zM277.2916737303365,347.019191733408 C314.1300084717276,347.019191733408 344.0191762806619,316.36979995670106 344.0191762806619,278.5944908164358 C344.0191762806619,240.79269127861522 314.1300084717276,210.16978990057663 277.2916737303365,210.16978990057663 C240.42750565451217,210.16978990057663 210.56417118000746,240.81918167729032 210.56417118000746,278.5944908164358 C210.56417118000746,316.36979995670106 240.42750565451217,347.019191733408 277.2916737303365,347.019191733408 zM613.1508532321294,406.6225897445376 L486.1283483780385,276.36929729125154 L307.43917488194495,459.60338797690173 L257.9166729895152,408.82129287160836 L186.82333693945205,481.7228712387349 L186.82333693945205,618.5457826728887 L613.1508532321294,618.5457826728887 L613.1508532321294,406.6225897445376 z" style="color: rgb(0, 0, 0);" class="" fill-opacity="1" opacity="0.82"/></g></svg>